<?xml version="1.0" standalone="no"?>
<!DOCTYPE svg PUBLIC "-//W3C//DTD SVG 20010904//EN"
 "http://www.w3.org/TR/2001/REC-SVG-20010904/DTD/svg10.dtd">
<svg version="1.0" xmlns="http://www.w3.org/2000/svg"
 width="700.000000pt" height="700.000000pt" viewBox="0 0 700.000000 700.000000"
 preserveAspectRatio="xMidYMid meet">
<metadata>
Created by potrace 1.11, written by Peter Selinger 2001-2013
</metadata>
<g transform="translate(0.000000,700.000000) scale(0.100000,-0.100000)"
fill="#000000" stroke="none">
<path d="M4334 6771 c-12 -5 -31 -22 -43 -37 -20 -26 -21 -35 -21 -331 0 -330
3 -347 55 -371 54 -25 117 -7 141 39 11 23 14 89 14 333 l0 306 -27 30 c-30
33 -82 46 -119 31z"/>
<path d="M3134 6446 c-17 -8 -39 -24 -48 -37 -34 -48 -22 -84 87 -275 172
-299 186 -322 213 -343 66 -52 164 0 164 88 0 43 -288 541 -322 559 -41 19
-62 21 -94 8z"/>
<path d="M5560 6453 c-48 -15 -67 -37 -139 -162 -241 -416 -238 -409 -207
-470 27 -51 103 -67 150 -30 27 21 41 44 213 343 109 191 121 227 87 275 -13
18 -74 54 -86 50 -2 0 -10 -3 -18 -6z"/>
<path d="M4107 5769 c-269 -47 -530 -173 -742 -357 -248 -215 -432 -538 -491
-863 l-17 -91 -36 6 c-253 42 -533 21 -779 -60 -499 -163 -888 -549 -1052
-1043 -64 -191 -96 -397 -88 -567 l3 -83 -50 -23 c-88 -41 -220 -135 -286
-205 -244 -260 -328 -621 -222 -958 91 -290 304 -510 594 -616 168 -61 118
-60 1917 -56 l1637 3 85 22 c103 28 251 97 334 156 124 89 245 235 312 380 66
144 79 211 78 406 0 161 -2 182 -27 263 -53 173 -134 304 -264 428 -95 90
-218 169 -325 206 -43 16 -78 30 -78 33 0 3 39 13 86 23 582 120 1044 583
1175 1180 32 145 37 408 11 562 -55 321 -205 610 -437 840 -217 215 -506 363
-810 415 -154 26 -376 26 -528 -1z m523 -213 c257 -55 462 -163 648 -340 202
-194 331 -427 389 -706 24 -118 24 -373 0 -490 -124 -586 -592 -1009 -1177
-1062 -83 -8 -153 -8 -210 -2 l-84 9 -12 96 c-74 586 -488 1106 -1051 1320
-71 27 -70 22 -48 136 30 160 104 338 203 488 62 95 258 289 357 354 174 114
376 188 585 215 72 9 327 -3 400 -18z m-1770 -1319 c275 -65 500 -188 691
-377 126 -124 206 -236 284 -395 109 -221 145 -387 145 -660 0 -247 -2 -245
288 -245 154 0 203 -4 265 -19 186 -48 358 -174 456 -335 231 -383 82 -876
-324 -1067 -160 -74 -36 -70 -1890 -67 l-1660 3 -88 31 c-125 45 -190 87 -292
189 -73 72 -99 107 -133 175 -58 117 -82 218 -82 348 0 131 18 208 77 331 38
80 59 108 137 186 96 97 176 149 284 186 33 11 70 31 83 45 24 25 24 28 21
212 -3 152 1 208 17 302 106 608 582 1076 1196 1175 138 22 390 13 525 -18z"/>
<path d="M3735 4901 c-181 -84 -159 -351 33 -407 198 -58 355 161 239 333 -59
87 -176 119 -272 74z"/>
<path d="M4711 4898 c-77 -38 -130 -138 -117 -221 22 -138 148 -221 278 -183
196 57 213 332 26 410 -54 23 -134 20 -187 -6z"/>
<path d="M1880 3381 c-95 -29 -184 -113 -219 -204 -37 -100 -22 -180 39 -212
79 -41 146 6 164 116 12 70 90 108 155 74 34 -17 61 -66 61 -109 0 -35 45 -84
84 -91 51 -10 104 17 122 62 48 114 -57 298 -202 352 -56 21 -154 27 -204 12z"/>
<path d="M2944 3370 c-73 -29 -141 -93 -175 -163 -56 -118 -45 -207 28 -242
72 -34 144 10 158 97 9 56 26 82 64 98 67 27 151 -24 151 -91 0 -63 53 -119
112 -119 30 0 84 33 99 61 7 14 10 46 7 83 -9 110 -78 210 -181 263 -72 36
-189 42 -263 13z"/>
<path d="M2083 2460 c12 -135 111 -271 245 -337 64 -32 85 -37 161 -41 136 -7
236 30 329 120 80 77 132 186 132 275 l0 43 -436 0 -437 0 6 -60z"/>
<path d="M6435 5572 c-11 -2 -134 -70 -274 -151 -182 -105 -257 -154 -267
-173 -39 -76 10 -158 95 -158 29 0 507 271 549 310 16 16 22 34 22 65 0 69
-61 121 -125 107z"/>
<path d="M2219 5541 c-23 -24 -29 -38 -29 -73 0 -24 7 -51 15 -61 24 -32 526
-317 558 -317 83 0 132 83 93 158 -10 19 -85 68 -270 175 -288 166 -311 173
-367 118z"/>
<path d="M6181 4356 c-68 -38 -66 -152 4 -184 18 -8 116 -12 330 -12 l305 0
32 29 c28 25 33 36 33 76 0 40 -5 51 -33 76 l-32 29 -308 0 c-236 -1 -313 -4
-331 -14z"/>
<path d="M5931 3426 c-51 -28 -66 -104 -30 -150 21 -27 44 -41 343 -213 206
-118 235 -125 287 -74 23 24 29 38 29 73 0 25 -8 52 -18 65 -9 12 -131 87
-271 167 -262 151 -288 161 -340 132z"/>
<path d="M5251 2746 c-30 -17 -50 -53 -51 -91 0 -33 266 -507 309 -551 36 -36
103 -34 142 5 55 56 48 79 -118 367 -106 183 -156 260 -175 270 -33 17 -75 17
-107 0z"/>
</g>
</svg>
